<svg viewBox="0 0 133 99" fill="none" xmlns="http://www.w3.org/2000/svg">
  <path opacity="0.94" fill-rule="evenodd" clip-rule="evenodd" d="M27.9609 0V0.101103L28.062 0H27.9609Z" fill="#EA6C6C" />
  <path opacity="0.94" fill-rule="evenodd" clip-rule="evenodd" d="M96.8269 48.5613V12.7373H132.651L96.8269 48.5613Z" fill="#F89090" />
  <path opacity="0.94" fill-rule="evenodd" clip-rule="evenodd" d="M20.7961 2.14941V2.25052L20.8972 2.14941H20.7961Z" fill="#EA6C6C" />
  <path fill-rule="evenodd" clip-rule="evenodd" d="M42.8799 99L78.7039 63.176L114.528 99H42.8799Z" fill="#F8F490" />
  <path fill-rule="evenodd" clip-rule="evenodd" d="M61.0865 46.3778L43.1745 64.2898L25.2625 46.3778H61.0865Z" fill="#FFD4D4" />
  <path fill-rule="evenodd" clip-rule="evenodd" d="M0.0983887 21.0463L25.4298 46.3776L50.7612 46.3777L25.4298 21.0463H0.0983887Z" fill="#EA6C6C" />
  <path fill-rule="evenodd" clip-rule="evenodd" d="M96.8269 47.3641L114.739 29.4521L132.651 47.3641H96.8269Z" fill="#FFA7A7" />
  <path fill-rule="evenodd" clip-rule="evenodd" d="M43.0911 64.2898L61.0031 46.3778L78.9151 64.2898L61.0031 82.2018L43.0911 64.2898Z" fill="#EF7E7E" />
  <path fill-rule="evenodd" clip-rule="evenodd" d="M60.792 46.1667H132.44L96.616 81.9908L60.792 46.1667Z" fill="#F38888" />
</svg>
